<svg width="175" height="30" viewBox="0 0 251 37" fill="none" xmlns="http://www.w3.org/2000/svg">
<rect width="251" height="37" fill="#F5F5F5"/>
<rect width="251" height="37" fill="white"/>
<path d="M26.3148 11.96C27.7948 11.96 29.0882 12.2533 30.1948 12.84C31.3015 13.4267 32.1548 14.2533 32.7548 15.32C33.3682 16.3733 33.6748 17.5933 33.6748 18.98C33.6748 20.3533 33.3682 21.5733 32.7548 22.64C32.1548 23.7067 31.2948 24.5333 30.1748 25.12C29.0682 25.7067 27.7815 26 26.3148 26H21.0548V11.96H26.3148ZM26.0948 23.04C27.3882 23.04 28.3948 22.6867 29.1148 21.98C29.8348 21.2733 30.1948 20.2733 30.1948 18.98C30.1948 17.6867 29.8348 16.68 29.1148 15.96C28.3948 15.24 27.3882 14.88 26.0948 14.88H24.4748V23.04H26.0948ZM38.6061 14.7V17.54H43.1861V20.18H38.6061V23.26H43.7861V26H35.1861V11.96H43.7861V14.7H38.6061ZM50.6864 26.14C49.6597 26.14 48.7397 25.9733 47.9264 25.64C47.1131 25.3067 46.4597 24.8133 45.9664 24.16C45.4864 23.5067 45.2331 22.72 45.2064 21.8H48.8464C48.8997 22.32 49.0797 22.72 49.3864 23C49.6931 23.2667 50.0931 23.4 50.5864 23.4C51.0931 23.4 51.4931 23.2867 51.7864 23.06C52.0797 22.82 52.2264 22.4933 52.2264 22.08C52.2264 21.7333 52.1064 21.4467 51.8664 21.22C51.6397 20.9933 51.3531 20.8067 51.0064 20.66C50.6731 20.5133 50.1931 20.3467 49.5664 20.16C48.6597 19.88 47.9197 19.6 47.3464 19.32C46.7731 19.04 46.2797 18.6267 45.8664 18.08C45.4531 17.5333 45.2464 16.82 45.2464 15.94C45.2464 14.6333 45.7197 13.6133 46.6664 12.88C47.6131 12.1333 48.8464 11.76 50.3664 11.76C51.9131 11.76 53.1597 12.1333 54.1064 12.88C55.0531 13.6133 55.5597 14.64 55.6264 15.96H51.9264C51.8997 15.5067 51.7331 15.1533 51.4264 14.9C51.1197 14.6333 50.7264 14.5 50.2464 14.5C49.8331 14.5 49.4997 14.6133 49.2464 14.84C48.9931 15.0533 48.8664 15.3667 48.8664 15.78C48.8664 16.2333 49.0797 16.5867 49.5064 16.84C49.9331 17.0933 50.5997 17.3667 51.5064 17.66C52.4131 17.9667 53.1464 18.26 53.7064 18.54C54.2797 18.82 54.7731 19.2267 55.1864 19.76C55.5997 20.2933 55.8064 20.98 55.8064 21.82C55.8064 22.62 55.5997 23.3467 55.1864 24C54.7864 24.6533 54.1997 25.1733 53.4264 25.56C52.6531 25.9467 51.7397 26.14 50.6864 26.14ZM67.6111 11.96V14.7H63.8911V26H60.4711V14.7H56.7511V11.96H67.6111ZM72.3475 11.96V26H68.9275V11.96H72.3475ZM86.9859 26H83.5659L77.8459 17.34V26H74.4259V11.96H77.8459L83.5659 20.66V11.96H86.9859V26ZM97.805 23.52H92.565L91.725 26H88.145L93.225 11.96H97.185L102.265 26H98.645L97.805 23.52ZM96.925 20.88L95.185 15.74L93.465 20.88H96.925ZM113.511 11.96V14.7H109.791V26H106.371V14.7H102.651V11.96H113.511ZM118.248 11.96V26H114.828V11.96H118.248ZM126.966 26.14C125.646 26.14 124.433 25.8333 123.326 25.22C122.233 24.6067 121.359 23.7533 120.706 22.66C120.066 21.5533 119.746 20.3133 119.746 18.94C119.746 17.5667 120.066 16.3333 120.706 15.24C121.359 14.1467 122.233 13.2933 123.326 12.68C124.433 12.0667 125.646 11.76 126.966 11.76C128.286 11.76 129.493 12.0667 130.586 12.68C131.693 13.2933 132.559 14.1467 133.186 15.24C133.826 16.3333 134.146 17.5667 134.146 18.94C134.146 20.3133 133.826 21.5533 133.186 22.66C132.546 23.7533 131.679 24.6067 130.586 25.22C129.493 25.8333 128.286 26.14 126.966 26.14ZM126.966 23.02C128.086 23.02 128.979 22.6467 129.646 21.9C130.326 21.1533 130.666 20.1667 130.666 18.94C130.666 17.7 130.326 16.7133 129.646 15.98C128.979 15.2333 128.086 14.86 126.966 14.86C125.833 14.86 124.926 15.2267 124.246 15.96C123.579 16.6933 123.246 17.6867 123.246 18.94C123.246 20.18 123.579 21.1733 124.246 21.92C124.926 22.6533 125.833 23.02 126.966 23.02ZM148.209 26H144.789L139.069 17.34V26H135.649V11.96H139.069L144.789 20.66V11.96H148.209V26Z" fill="#7F2CBA"/>
<path d="M164.1 12.06V13.54H160.3V26H158.48V13.54H154.66V12.06H164.1ZM173.28 26L169.96 20.3H167.76V26H165.94V12.06H170.44C171.493 12.06 172.38 12.24 173.1 12.6C173.833 12.96 174.38 13.4467 174.74 14.06C175.1 14.6733 175.28 15.3733 175.28 16.16C175.28 17.12 175 17.9667 174.44 18.7C173.893 19.4333 173.067 19.92 171.96 20.16L175.46 26H173.28ZM167.76 18.84H170.44C171.427 18.84 172.167 18.6 172.66 18.12C173.153 17.6267 173.4 16.9733 173.4 16.16C173.4 15.3333 173.153 14.6933 172.66 14.24C172.18 13.7867 171.44 13.56 170.44 13.56H167.76V18.84ZM185.948 22.9H179.868L178.748 26H176.828L181.868 12.14H183.968L188.988 26H187.068L185.948 22.9ZM185.428 21.42L182.908 14.38L180.388 21.42H185.428ZM202.305 12.06L197.045 26H194.945L189.685 12.06H191.625L196.005 24.08L200.385 12.06H202.305ZM205.72 13.54V18.2H210.8V19.7H205.72V24.5H211.4V26H203.9V12.04H211.4V13.54H205.72ZM215.574 24.52H220.454V26H213.754V12.06H215.574V24.52ZM226.407 26.14C225.487 26.14 224.66 25.98 223.927 25.66C223.207 25.3267 222.64 24.8733 222.227 24.3C221.814 23.7133 221.6 23.04 221.587 22.28H223.527C223.594 22.9333 223.86 23.4867 224.327 23.94C224.807 24.38 225.5 24.6 226.407 24.6C227.274 24.6 227.954 24.3867 228.447 23.96C228.954 23.52 229.207 22.96 229.207 22.28C229.207 21.7467 229.06 21.3133 228.767 20.98C228.474 20.6467 228.107 20.3933 227.667 20.22C227.227 20.0467 226.634 19.86 225.887 19.66C224.967 19.42 224.227 19.18 223.667 18.94C223.12 18.7 222.647 18.3267 222.247 17.82C221.86 17.3 221.667 16.6067 221.667 15.74C221.667 14.98 221.86 14.3067 222.247 13.72C222.634 13.1333 223.174 12.68 223.867 12.36C224.574 12.04 225.38 11.88 226.287 11.88C227.594 11.88 228.66 12.2067 229.487 12.86C230.327 13.5133 230.8 14.38 230.907 15.46H228.907C228.84 14.9267 228.56 14.46 228.067 14.06C227.574 13.6467 226.92 13.44 226.107 13.44C225.347 13.44 224.727 13.64 224.247 14.04C223.767 14.4267 223.527 14.9733 223.527 15.68C223.527 16.1867 223.667 16.6 223.947 16.92C224.24 17.24 224.594 17.4867 225.007 17.66C225.434 17.82 226.027 18.0067 226.787 18.22C227.707 18.4733 228.447 18.7267 229.007 18.98C229.567 19.22 230.047 19.6 230.447 20.12C230.847 20.6267 231.047 21.32 231.047 22.2C231.047 22.88 230.867 23.52 230.507 24.12C230.147 24.72 229.614 25.2067 228.907 25.58C228.2 25.9533 227.367 26.14 226.407 26.14Z" fill="#D9D9D9"/>
<path d="M164.1 12.06V13.54H160.3V26H158.48V13.54H154.66V12.06H164.1ZM173.28 26L169.96 20.3H167.76V26H165.94V12.06H170.44C171.493 12.06 172.38 12.24 173.1 12.6C173.833 12.96 174.38 13.4467 174.74 14.06C175.1 14.6733 175.28 15.3733 175.28 16.16C175.28 17.12 175 17.9667 174.44 18.7C173.893 19.4333 173.067 19.92 171.96 20.16L175.46 26H173.28ZM167.76 18.84H170.44C171.427 18.84 172.167 18.6 172.66 18.12C173.153 17.6267 173.4 16.9733 173.4 16.16C173.4 15.3333 173.153 14.6933 172.66 14.24C172.18 13.7867 171.44 13.56 170.44 13.56H167.76V18.84ZM185.948 22.9H179.868L178.748 26H176.828L181.868 12.14H183.968L188.988 26H187.068L185.948 22.9ZM185.428 21.42L182.908 14.38L180.388 21.42H185.428ZM202.305 12.06L197.045 26H194.945L189.685 12.06H191.625L196.005 24.08L200.385 12.06H202.305ZM205.72 13.54V18.2H210.8V19.7H205.72V24.5H211.4V26H203.9V12.04H211.4V13.54H205.72ZM215.574 24.52H220.454V26H213.754V12.06H215.574V24.52ZM226.407 26.14C225.487 26.14 224.66 25.98 223.927 25.66C223.207 25.3267 222.64 24.8733 222.227 24.3C221.814 23.7133 221.6 23.04 221.587 22.28H223.527C223.594 22.9333 223.86 23.4867 224.327 23.94C224.807 24.38 225.5 24.6 226.407 24.6C227.274 24.6 227.954 24.3867 228.447 23.96C228.954 23.52 229.207 22.96 229.207 22.28C229.207 21.7467 229.06 21.3133 228.767 20.98C228.474 20.6467 228.107 20.3933 227.667 20.22C227.227 20.0467 226.634 19.86 225.887 19.66C224.967 19.42 224.227 19.18 223.667 18.94C223.12 18.7 222.647 18.3267 222.247 17.82C221.86 17.3 221.667 16.6067 221.667 15.74C221.667 14.98 221.86 14.3067 222.247 13.72C222.634 13.1333 223.174 12.68 223.867 12.36C224.574 12.04 225.38 11.88 226.287 11.88C227.594 11.88 228.66 12.2067 229.487 12.86C230.327 13.5133 230.8 14.38 230.907 15.46H228.907C228.84 14.9267 228.56 14.46 228.067 14.06C227.574 13.6467 226.92 13.44 226.107 13.44C225.347 13.44 224.727 13.64 224.247 14.04C223.767 14.4267 223.527 14.9733 223.527 15.68C223.527 16.1867 223.667 16.6 223.947 16.92C224.24 17.24 224.594 17.4867 225.007 17.66C225.434 17.82 226.027 18.0067 226.787 18.22C227.707 18.4733 228.447 18.7267 229.007 18.98C229.567 19.22 230.047 19.6 230.447 20.12C230.847 20.6267 231.047 21.32 231.047 22.2C231.047 22.88 230.867 23.52 230.507 24.12C230.147 24.72 229.614 25.2067 228.907 25.58C228.2 25.9533 227.367 26.14 226.407 26.14Z" fill="black"/>
</svg>
