<svg width="211" height="16" viewBox="0 0 211 16" fill="none" xmlns="http://www.w3.org/2000/svg">
<path d="M5.31484 0.96C6.79484 0.96 8.08818 1.25333 9.19484 1.84C10.3015 2.42667 11.1548 3.25333 11.7548 4.32C12.3682 5.37333 12.6748 6.59333 12.6748 7.98C12.6748 9.35333 12.3682 10.5733 11.7548 11.64C11.1548 12.7067 10.2948 13.5333 9.17484 14.12C8.06818 14.7067 6.78151 15 5.31484 15H0.0548423V0.96H5.31484ZM5.09484 12.04C6.38818 12.04 7.39484 11.6867 8.11484 10.98C8.83484 10.2733 9.19484 9.27333 9.19484 7.98C9.19484 6.68667 8.83484 5.68 8.11484 4.96C7.39484 4.24 6.38818 3.88 5.09484 3.88H3.47484V12.04H5.09484ZM17.6061 3.7V6.54H22.1861V9.18H17.6061V12.26H22.7861V15H14.1861V0.96H22.7861V3.7H17.6061ZM29.6864 15.14C28.6597 15.14 27.7397 14.9733 26.9264 14.64C26.1131 14.3067 25.4597 13.8133 24.9664 13.16C24.4864 12.5067 24.2331 11.72 24.2064 10.8H27.8464C27.8997 11.32 28.0797 11.72 28.3864 12C28.6931 12.2667 29.0931 12.4 29.5864 12.4C30.0931 12.4 30.4931 12.2867 30.7864 12.06C31.0797 11.82 31.2264 11.4933 31.2264 11.08C31.2264 10.7333 31.1064 10.4467 30.8664 10.22C30.6397 9.99333 30.3531 9.80667 30.0064 9.66C29.6731 9.51333 29.1931 9.34667 28.5664 9.16C27.6597 8.88 26.9197 8.6 26.3464 8.32C25.7731 8.04 25.2797 7.62667 24.8664 7.08C24.4531 6.53333 24.2464 5.82 24.2464 4.94C24.2464 3.63333 24.7197 2.61333 25.6664 1.88C26.6131 1.13333 27.8464 0.76 29.3664 0.76C30.9131 0.76 32.1597 1.13333 33.1064 1.88C34.0531 2.61333 34.5597 3.64 34.6264 4.96H30.9264C30.8997 4.50667 30.7331 4.15333 30.4264 3.9C30.1197 3.63333 29.7264 3.5 29.2464 3.5C28.8331 3.5 28.4997 3.61333 28.2464 3.84C27.9931 4.05333 27.8664 4.36667 27.8664 4.78C27.8664 5.23333 28.0797 5.58667 28.5064 5.84C28.9331 6.09333 29.5997 6.36667 30.5064 6.66C31.4131 6.96667 32.1464 7.26 32.7064 7.54C33.2797 7.82 33.7731 8.22667 34.1864 8.76C34.5997 9.29333 34.8064 9.98 34.8064 10.82C34.8064 11.62 34.5997 12.3467 34.1864 13C33.7864 13.6533 33.1997 14.1733 32.4264 14.56C31.6531 14.9467 30.7397 15.14 29.6864 15.14ZM46.6111 0.96V3.7H42.8911V15H39.4711V3.7H35.7511V0.96H46.6111ZM51.3475 0.96V15H47.9275V0.96H51.3475ZM65.9859 15H62.5659L56.8459 6.34V15H53.4259V0.96H56.8459L62.5659 9.66V0.96H65.9859V15ZM76.805 12.52H71.565L70.725 15H67.145L72.225 0.96H76.185L81.265 15H77.645L76.805 12.52ZM75.925 9.88L74.185 4.74L72.465 9.88H75.925ZM92.5111 0.96V3.7H88.7911V15H85.3711V3.7H81.6511V0.96H92.5111ZM97.2475 0.96V15H93.8275V0.96H97.2475ZM105.966 15.14C104.646 15.14 103.433 14.8333 102.326 14.22C101.233 13.6067 100.359 12.7533 99.7059 11.66C99.0659 10.5533 98.7459 9.31333 98.7459 7.94C98.7459 6.56667 99.0659 5.33333 99.7059 4.24C100.359 3.14667 101.233 2.29333 102.326 1.68C103.433 1.06667 104.646 0.76 105.966 0.76C107.286 0.76 108.493 1.06667 109.586 1.68C110.693 2.29333 111.559 3.14667 112.186 4.24C112.826 5.33333 113.146 6.56667 113.146 7.94C113.146 9.31333 112.826 10.5533 112.186 11.66C111.546 12.7533 110.679 13.6067 109.586 14.22C108.493 14.8333 107.286 15.14 105.966 15.14ZM105.966 12.02C107.086 12.02 107.979 11.6467 108.646 10.9C109.326 10.1533 109.666 9.16667 109.666 7.94C109.666 6.7 109.326 5.71333 108.646 4.98C107.979 4.23333 107.086 3.86 105.966 3.86C104.833 3.86 103.926 4.22667 103.246 4.96C102.579 5.69333 102.246 6.68667 102.246 7.94C102.246 9.18 102.579 10.1733 103.246 10.92C103.926 11.6533 104.833 12.02 105.966 12.02ZM127.209 15H123.789L118.069 6.34V15H114.649V0.96H118.069L123.789 9.66V0.96H127.209V15Z" fill="#7F2CBA"/>
<path d="M143.1 1.06V2.54H139.3V15H137.48V2.54H133.66V1.06H143.1ZM152.28 15L148.96 9.3H146.76V15H144.94V1.06H149.44C150.493 1.06 151.38 1.24 152.1 1.6C152.833 1.96 153.38 2.44667 153.74 3.06C154.1 3.67333 154.28 4.37333 154.28 5.16C154.28 6.12 154 6.96667 153.44 7.7C152.893 8.43333 152.067 8.92 150.96 9.16L154.46 15H152.28ZM146.76 7.84H149.44C150.427 7.84 151.167 7.6 151.66 7.12C152.153 6.62667 152.4 5.97333 152.4 5.16C152.4 4.33333 152.153 3.69333 151.66 3.24C151.18 2.78667 150.44 2.56 149.44 2.56H146.76V7.84ZM164.948 11.9H158.868L157.748 15H155.828L160.868 1.14H162.968L167.988 15H166.068L164.948 11.9ZM164.428 10.42L161.908 3.38L159.388 10.42H164.428ZM181.305 1.06L176.045 15H173.945L168.685 1.06H170.625L175.005 13.08L179.385 1.06H181.305ZM184.72 2.54V7.2H189.8V8.7H184.72V13.5H190.4V15H182.9V1.04H190.4V2.54H184.72ZM194.574 13.52H199.454V15H192.754V1.06H194.574V13.52ZM205.407 15.14C204.487 15.14 203.66 14.98 202.927 14.66C202.207 14.3267 201.64 13.8733 201.227 13.3C200.814 12.7133 200.6 12.04 200.587 11.28H202.527C202.594 11.9333 202.86 12.4867 203.327 12.94C203.807 13.38 204.5 13.6 205.407 13.6C206.274 13.6 206.954 13.3867 207.447 12.96C207.954 12.52 208.207 11.96 208.207 11.28C208.207 10.7467 208.06 10.3133 207.767 9.98C207.474 9.64667 207.107 9.39333 206.667 9.22C206.227 9.04667 205.634 8.86 204.887 8.66C203.967 8.42 203.227 8.18 202.667 7.94C202.12 7.7 201.647 7.32667 201.247 6.82C200.86 6.3 200.667 5.60667 200.667 4.74C200.667 3.98 200.86 3.30667 201.247 2.72C201.634 2.13333 202.174 1.68 202.867 1.36C203.574 1.04 204.38 0.879999 205.287 0.879999C206.594 0.879999 207.66 1.20667 208.487 1.86C209.327 2.51333 209.8 3.38 209.907 4.46H207.907C207.84 3.92667 207.56 3.46 207.067 3.06C206.574 2.64667 205.92 2.44 205.107 2.44C204.347 2.44 203.727 2.64 203.247 3.04C202.767 3.42667 202.527 3.97333 202.527 4.68C202.527 5.18667 202.667 5.6 202.947 5.92C203.24 6.24 203.594 6.48667 204.007 6.66C204.434 6.82 205.027 7.00667 205.787 7.22C206.707 7.47333 207.447 7.72667 208.007 7.98C208.567 8.22 209.047 8.6 209.447 9.12C209.847 9.62667 210.047 10.32 210.047 11.2C210.047 11.88 209.867 12.52 209.507 13.12C209.147 13.72 208.614 14.2067 207.907 14.58C207.2 14.9533 206.367 15.14 205.407 15.14Z" fill="#D9D9D9"/>
<path d="M143.1 1.06V2.54H139.3V15H137.48V2.54H133.66V1.06H143.1ZM152.28 15L148.96 9.3H146.76V15H144.94V1.06H149.44C150.493 1.06 151.38 1.24 152.1 1.6C152.833 1.96 153.38 2.44667 153.74 3.06C154.1 3.67333 154.28 4.37333 154.28 5.16C154.28 6.12 154 6.96667 153.44 7.7C152.893 8.43333 152.067 8.92 150.96 9.16L154.46 15H152.28ZM146.76 7.84H149.44C150.427 7.84 151.167 7.6 151.66 7.12C152.153 6.62667 152.4 5.97333 152.4 5.16C152.4 4.33333 152.153 3.69333 151.66 3.24C151.18 2.78667 150.44 2.56 149.44 2.56H146.76V7.84ZM164.948 11.9H158.868L157.748 15H155.828L160.868 1.14H162.968L167.988 15H166.068L164.948 11.9ZM164.428 10.42L161.908 3.38L159.388 10.42H164.428ZM181.305 1.06L176.045 15H173.945L168.685 1.06H170.625L175.005 13.08L179.385 1.06H181.305ZM184.72 2.54V7.2H189.8V8.7H184.72V13.5H190.4V15H182.9V1.04H190.4V2.54H184.72ZM194.574 13.52H199.454V15H192.754V1.06H194.574V13.52ZM205.407 15.14C204.487 15.14 203.66 14.98 202.927 14.66C202.207 14.3267 201.64 13.8733 201.227 13.3C200.814 12.7133 200.6 12.04 200.587 11.28H202.527C202.594 11.9333 202.86 12.4867 203.327 12.94C203.807 13.38 204.5 13.6 205.407 13.6C206.274 13.6 206.954 13.3867 207.447 12.96C207.954 12.52 208.207 11.96 208.207 11.28C208.207 10.7467 208.06 10.3133 207.767 9.98C207.474 9.64667 207.107 9.39333 206.667 9.22C206.227 9.04667 205.634 8.86 204.887 8.66C203.967 8.42 203.227 8.18 202.667 7.94C202.12 7.7 201.647 7.32667 201.247 6.82C200.86 6.3 200.667 5.60667 200.667 4.74C200.667 3.98 200.86 3.30667 201.247 2.72C201.634 2.13333 202.174 1.68 202.867 1.36C203.574 1.04 204.38 0.879999 205.287 0.879999C206.594 0.879999 207.66 1.20667 208.487 1.86C209.327 2.51333 209.8 3.38 209.907 4.46H207.907C207.84 3.92667 207.56 3.46 207.067 3.06C206.574 2.64667 205.92 2.44 205.107 2.44C204.347 2.44 203.727 2.64 203.247 3.04C202.767 3.42667 202.527 3.97333 202.527 4.68C202.527 5.18667 202.667 5.6 202.947 5.92C203.24 6.24 203.594 6.48667 204.007 6.66C204.434 6.82 205.027 7.00667 205.787 7.22C206.707 7.47333 207.447 7.72667 208.007 7.98C208.567 8.22 209.047 8.6 209.447 9.12C209.847 9.62667 210.047 10.32 210.047 11.2C210.047 11.88 209.867 12.52 209.507 13.12C209.147 13.72 208.614 14.2067 207.907 14.58C207.2 14.9533 206.367 15.14 205.407 15.14Z" fill="black"/>
</svg>
